<svg width="85" height="56" viewBox="0 0 85 56" fill="none" xmlns="http://www.w3.org/2000/svg">
<path d="M6.68937 20C4.04937 20 1.94937 18.68 1.40937 16.6L1.18937 16.7C1.72937 18.76 3.88937 20.2 6.68937 20.2C9.82937 20.2 12.5094 18.28 12.5094 15.22C12.5094 13.56 11.4894 12.68 9.76937 12.04L7.44937 11.16C6.24937 10.68 5.18937 10.16 5.18937 8.78C5.18937 7.16 6.62937 6 8.82937 6C11.4694 6 13.0294 7.2 13.4094 9.06L13.6294 8.98C13.2094 7.08 11.5694 5.8 8.82937 5.8C5.72937 5.8 3.50937 7.68 3.50937 10.24C3.50937 11.92 4.74937 12.86 6.32937 13.44L8.48937 14.22C9.98937 14.76 10.7494 15.4 10.7494 16.6C10.7494 18.74 9.00937 20 6.68937 20ZM19.1792 5.02H16.8592L13.6592 17.82C13.5992 18.04 13.5792 18.28 13.5792 18.48C13.5792 19.48 14.2192 20.2 15.4392 20.2C16.5792 20.2 17.4792 19.62 18.0392 18.42L17.8992 18.34C17.4992 19.22 16.9592 19.66 16.3992 19.66C15.9792 19.66 15.7592 19.38 15.7592 18.94C15.7592 18.78 15.7992 18.6 15.8392 18.4L19.1792 5.02ZM29.4014 10.2H27.0814L25.6414 16C25.1214 18.04 23.6614 19.34 22.4014 19.34C21.6014 19.34 21.2614 18.9 21.2614 18.16C21.2614 17.86 21.3214 17.52 21.4214 17.14L23.1614 10.2H20.8214L19.2614 16.48C19.1614 16.84 19.1214 17.18 19.1214 17.5C19.1214 18.94 20.0214 19.88 21.5214 19.88C23.0814 19.88 24.4214 19.02 25.2814 17.38L24.7214 19.64C24.0214 22.52 22.8814 24.24 20.3614 24.24C18.7614 24.24 17.4614 23.34 17.4614 21.98C17.4614 21.1 17.9014 20.48 18.6614 20.24L18.5814 20.06C17.7814 20.34 17.2614 21.02 17.2614 21.98C17.2614 23.38 18.5214 24.5 20.6814 24.5C23.8014 24.5 26.2214 22.94 27.2214 18.92L29.4014 10.2ZM30.2686 15.92C30.1486 16.4 30.0886 16.86 30.0886 17.3C30.0886 19.02 31.1286 20.2 33.1686 20.2C36.8686 20.2 39.6286 16.14 39.6286 12.62C39.6286 11 38.8686 10 37.5086 10C36.5486 10 35.8286 10.6 35.5086 11.44L35.6686 11.54C36.0286 10.72 36.6286 10.2 37.5086 10.2C38.7486 10.2 39.4286 11.14 39.4286 12.64C39.4286 16.06 36.6886 19.76 33.8886 19.76C32.7686 19.76 32.2886 19.02 32.2886 17.86C32.2886 17.36 32.3886 16.76 32.5486 16.1L34.0086 10.2H31.6886L30.2686 15.92ZM44.147 20.2C46.167 20.2 47.847 19.22 48.647 17.42L48.467 17.36C47.687 19.06 46.247 19.84 44.787 19.84C43.407 19.84 42.427 18.84 42.427 16.88C42.427 16.38 42.467 15.88 42.547 15.38C46.107 15.3 49.387 14.46 49.387 12.18C49.387 10.96 48.327 10 46.407 10C43.027 10 40.167 13.02 40.167 16.38C40.167 18.78 42.027 20.2 44.147 20.2ZM46.367 10.2C47.327 10.2 47.707 10.72 47.707 11.6C47.707 14 45.707 15.1 42.587 15.22C43.047 12.64 44.527 10.2 46.367 10.2ZM54.5898 10.2C56.4898 10.2 57.5698 11.02 57.5698 12.18C57.5698 12.78 57.2898 13.2 56.8298 13.44L56.8898 13.6C57.3898 13.36 57.7698 12.86 57.7698 12.18C57.7698 10.9 56.5698 10 54.5898 10C52.2498 10 50.6698 11.42 50.6698 13.18C50.6698 14.66 51.9498 15.24 53.4298 15.9C54.6498 16.44 55.5098 16.92 55.5098 17.92C55.5098 19.04 54.5498 19.96 52.8298 19.96C50.9298 19.96 49.4098 18.96 49.4098 17.64C49.4098 16.96 49.7898 16.44 50.4098 16.16L50.3298 16.02C49.6498 16.28 49.2098 16.9 49.2098 17.64C49.2098 19.06 50.8098 20.2 53.0298 20.2C55.5098 20.2 57.2698 18.62 57.2698 16.78C57.2698 15.24 55.9698 14.6 54.3498 13.92C53.2298 13.42 52.3298 12.98 52.3298 12.04C52.3298 10.96 53.1698 10.2 54.5898 10.2ZM58.9714 10.4H60.4914L58.8314 17.12C58.7714 17.42 58.7314 17.68 58.7314 17.94C58.7314 19.36 59.7714 20.2 61.2514 20.2C63.3514 20.2 64.5714 18.74 65.1114 16.76L64.9314 16.72C64.4114 18.56 63.3714 19.74 62.0314 19.74C61.2914 19.74 60.8714 19.34 60.8714 18.58C60.8714 18.38 60.9114 18.12 60.9714 17.84L62.8114 10.4H65.8714L66.0114 10.2H62.8714L63.6714 6.94L61.1914 7.86L60.5514 10.2H59.0314L58.9714 10.4ZM69.5877 20.2C71.6077 20.2 73.2877 19.22 74.0877 17.42L73.9077 17.36C73.1277 19.06 71.6877 19.84 70.2277 19.84C68.8477 19.84 67.8677 18.84 67.8677 16.88C67.8677 16.38 67.9077 15.88 67.9877 15.38C71.5477 15.3 74.8277 14.46 74.8277 12.18C74.8277 10.96 73.7677 10 71.8477 10C68.4677 10 65.6077 13.02 65.6077 16.38C65.6077 18.78 67.4677 20.2 69.5877 20.2ZM71.8077 10.2C72.7677 10.2 73.1477 10.72 73.1477 11.6C73.1477 14 71.1477 15.1 68.0277 15.22C68.4877 12.64 69.9677 10.2 71.8077 10.2ZM78.8133 13.16L79.4733 10.2H77.2133L74.7733 20H77.0933L78.4933 14.4C79.1333 12.46 80.6333 10.2 82.4133 10.2C83.4333 10.2 83.9533 10.84 83.9533 11.74C83.9533 12.64 83.4533 13.38 82.6933 13.86L82.7933 14.02C83.5733 13.56 84.1533 12.68 84.1533 11.74C84.1533 10.72 83.5333 10 82.4133 10C80.8733 10 79.5733 11.58 78.8133 13.16Z" fill="white"/>
<path d="M3 28H83" stroke="white" stroke-width="2" stroke-linecap="round" stroke-linejoin="round"/>
<path d="M9.97914 43.28H3.93914L8.59914 36.66L9.97914 43.28ZM10.9591 48H13.5191L10.4191 33.8H10.3391L0.359141 48H0.619141L3.77914 43.5H10.0191L10.9591 48ZM22.2329 44.24C21.7329 46.04 20.3729 47.42 18.9929 47.42C17.7729 47.42 17.3529 46.46 17.3529 45.1C17.3529 42.14 18.7729 38.66 21.0529 38.66C22.2129 38.66 22.9129 39.52 22.9129 40.88C22.9129 41.3 22.8529 41.76 22.7329 42.2L22.2329 44.24ZM21.3529 47.64C20.6129 50.46 19.4729 52.22 16.8329 52.22C15.1929 52.22 13.8329 51.34 13.8329 49.96C13.8329 49.08 14.3129 48.46 15.0529 48.2L14.9929 48.02C14.1729 48.32 13.6329 48.98 13.6329 49.96C13.6329 51.44 15.0529 52.5 17.2729 52.5C20.3729 52.5 22.7329 51.08 23.8729 46.92L26.0529 38.2H23.8729L23.0729 40.76C23.0529 39.22 22.0329 38 20.3729 38C17.2529 38 15.0129 41.16 15.0129 44.56C15.0129 46.66 16.2329 48.02 18.1929 48.02C19.8729 48.02 21.2129 46.84 21.9529 45.4L21.3529 47.64ZM30.673 38.2H28.333L26.693 44.8C26.613 45.14 26.573 45.48 26.573 45.78C26.573 47.26 27.513 48.2 29.053 48.2C30.593 48.2 31.993 47.22 32.853 45.58C32.733 46.06 32.713 46.38 32.713 46.5C32.713 47.48 33.393 48.2 34.593 48.2C35.713 48.2 36.613 47.62 37.173 46.42L37.033 46.34C36.633 47.22 36.093 47.66 35.553 47.66C35.113 47.66 34.913 47.4 34.913 46.94C34.913 46.78 34.933 46.6 34.973 46.4L37.013 38.2H34.693L33.173 44.3C32.633 46.3 31.173 47.66 29.893 47.66C29.073 47.66 28.733 47.18 28.733 46.42C28.733 46.14 28.773 45.8 28.873 45.46L30.673 38.2ZM40.5657 45.46C40.5857 46.98 41.6057 48.2 43.2457 48.2C46.3257 48.2 48.6657 44.92 48.6657 41.52C48.6657 39.44 47.4857 38 45.5257 38C43.8257 38 42.4657 39.2 41.7457 40.62L43.6657 33.02H41.3457L37.6057 48H39.7057L40.5657 45.46ZM41.5257 41.52C42.0657 39.98 43.3257 38.62 44.7057 38.62C45.9057 38.62 46.3257 39.56 46.3257 40.92C46.3257 43.96 44.8257 47.56 42.5657 47.56C41.4457 47.56 40.7457 46.68 40.7257 45.34C40.7257 44.92 40.8057 44.46 40.9057 44L41.5257 41.52ZM55.9393 46.5C55.9393 47.48 56.6193 48.2 57.7993 48.2C58.9393 48.2 59.8393 47.62 60.3993 46.42L60.2593 46.34C59.8593 47.22 59.3193 47.66 58.7593 47.66C58.3393 47.66 58.1193 47.38 58.1193 46.94C58.1193 46.78 58.1593 46.6 58.1993 46.4L60.2393 38.2H58.0793L57.2793 40.76C57.2393 39.22 56.3393 38 54.7193 38C51.6393 38 49.3193 41.2 49.3193 44.62C49.3193 46.7 50.5193 48.2 52.4793 48.2C54.0993 48.2 55.3993 47 56.1193 45.58C55.9593 46.1 55.9393 46.38 55.9393 46.5ZM56.3193 44.7C55.7793 46.22 54.5593 47.58 53.2593 47.58C52.0993 47.58 51.6393 46.64 51.6593 45.22C51.6593 42.12 53.1993 38.68 55.3593 38.68C56.4793 38.68 57.1193 39.6 57.1193 40.86C57.1193 41.3 57.0393 41.74 56.9393 42.2L56.3193 44.7ZM61.532 38.4H63.052L61.392 45.12C61.332 45.42 61.292 45.68 61.292 45.94C61.292 47.36 62.332 48.2 63.812 48.2C65.912 48.2 67.132 46.74 67.672 44.76L67.492 44.72C66.972 46.56 65.932 47.74 64.592 47.74C63.852 47.74 63.432 47.34 63.432 46.58C63.432 46.38 63.472 46.12 63.532 45.84L65.372 38.4H68.432L68.572 38.2H65.432L66.232 34.94L63.752 35.86L63.112 38.2H61.592L61.532 38.4ZM74.7682 46.5C74.7682 47.48 75.4482 48.2 76.6282 48.2C77.7682 48.2 78.6682 47.62 79.2282 46.42L79.0882 46.34C78.6882 47.22 78.1482 47.66 77.5882 47.66C77.1682 47.66 76.9482 47.38 76.9482 46.94C76.9482 46.78 76.9882 46.6 77.0282 46.4L79.0682 38.2H76.9082L76.1082 40.76C76.0682 39.22 75.1682 38 73.5482 38C70.4682 38 68.1482 41.2 68.1482 44.62C68.1482 46.7 69.3482 48.2 71.3082 48.2C72.9282 48.2 74.2282 47 74.9482 45.58C74.7882 46.1 74.7682 46.38 74.7682 46.5ZM75.1482 44.7C74.6082 46.22 73.3882 47.58 72.0882 47.58C70.9282 47.58 70.4682 46.64 70.4882 45.22C70.4882 42.12 72.0282 38.68 74.1882 38.68C75.3082 38.68 75.9482 39.6 75.9482 40.86C75.9482 41.3 75.8682 41.74 75.7682 42.2L75.1482 44.7Z" fill="white"/>
</svg>
