<svg width="59" height="59" viewBox="0 0 59 59" fill="none" xmlns="http://www.w3.org/2000/svg">
<path d="M37.5 41.9941C36.2541 41.9941 35.2441 43.0041 35.2441 44.25C35.2441 45.4959 36.2541 46.5059 37.5 46.5059V41.9941ZM12.9062 41.9941C11.6604 41.9941 10.6504 43.0041 10.6504 44.25C10.6504 45.4959 11.6604 46.5059 12.9062 46.5059V41.9941ZM37.4376 23.5377L45.9246 40.2288L49.9463 38.1839L41.4593 21.4927L37.4376 23.5377ZM44.8418 41.9941H37.5V46.5059H44.8418V41.9941ZM26.7886 12.4941H20.7151V17.0059H26.7886V12.4941ZM27.1357 36.4412V37.3088H31.6474V36.4412H27.1357ZM22.4504 41.9941H12.9062V46.5059H22.4504V41.9941ZM20.7151 32.6235H23.318V28.1118H20.7151V32.6235ZM27.1357 37.3088C27.1357 39.8964 25.038 41.9941 22.4504 41.9941V46.5059C27.5298 46.5059 31.6474 42.3882 31.6474 37.3088H27.1357ZM10.6504 22.5588C10.6504 28.1174 15.1565 32.6235 20.7151 32.6235V28.1118C17.6483 28.1118 15.1621 25.6256 15.1621 22.5588H10.6504ZM20.7151 12.4941C15.1565 12.4941 10.6504 17.0002 10.6504 22.5588H15.1621C15.1621 19.492 17.6483 17.0059 20.7151 17.0059V12.4941ZM45.9246 40.2288C46.3355 41.037 45.7484 41.9941 44.8418 41.9941V46.5059C49.1157 46.5059 51.8834 41.9936 49.9463 38.1839L45.9246 40.2288ZM31.6474 36.4412C31.6474 31.841 27.9182 28.1118 23.318 28.1118V32.6235C25.4264 32.6235 27.1357 34.3327 27.1357 36.4412H31.6474ZM26.7886 17.0059C31.2845 17.0059 35.3998 19.5301 37.4376 23.5377L41.4593 21.4927C38.6519 15.9716 32.9825 12.4941 26.7886 12.4941V17.0059Z" fill="url(#paint0_linear_227_171)"/>
<defs>
<linearGradient id="paint0_linear_227_171" x1="17.5" y1="15" x2="49" y2="45" gradientUnits="userSpaceOnUse">
<stop offset="0.317708" stop-color="#D62828" stop-opacity="0.7"/>
<stop offset="0.774691" stop-color="#4361EE" stop-opacity="0.7"/>
</linearGradient>
</defs>
</svg>
