<svg width="85" height="56" viewBox="0 0 85 56" fill="none" xmlns="http://www.w3.org/2000/svg">
<path d="M6.65031 20C4.01031 20 1.91031 18.68 1.37031 16.6L1.15031 16.7C1.69031 18.76 3.85031 20.2 6.65031 20.2C9.79031 20.2 12.4703 18.28 12.4703 15.22C12.4703 13.56 11.4503 12.68 9.73031 12.04L7.41031 11.16C6.21031 10.68 5.15031 10.16 5.15031 8.78C5.15031 7.16 6.59031 6 8.79031 6C11.4303 6 12.9903 7.2 13.3703 9.06L13.5903 8.98C13.1703 7.08 11.5303 5.8 8.79031 5.8C5.69031 5.8 3.47031 7.68 3.47031 10.24C3.47031 11.92 4.71031 12.86 6.29031 13.44L8.45031 14.22C9.95031 14.76 10.7103 15.4 10.7103 16.6C10.7103 18.74 8.97031 20 6.65031 20ZM24.1373 10.2H21.8173L20.3773 16C19.8573 18.04 18.3973 19.34 17.1373 19.34C16.3373 19.34 15.9973 18.9 15.9973 18.16C15.9973 17.86 16.0573 17.52 16.1573 17.14L17.8973 10.2H15.5573L13.9973 16.48C13.8973 16.84 13.8573 17.18 13.8573 17.5C13.8573 18.94 14.7573 19.88 16.2573 19.88C17.8173 19.88 19.1573 19.02 20.0173 17.38L19.4573 19.64C18.7573 22.52 17.6173 24.24 15.0973 24.24C13.4973 24.24 12.1973 23.34 12.1973 21.98C12.1973 21.1 12.6373 20.48 13.3973 20.24L13.3173 20.06C12.5173 20.34 11.9973 21.02 11.9973 21.98C11.9973 23.38 13.2573 24.5 15.4173 24.5C18.5373 24.5 20.9573 22.94 21.9573 18.92L24.1373 10.2ZM30.1855 5.02H27.8655L24.6655 17.82C24.6055 18.04 24.5855 18.28 24.5855 18.48C24.5855 19.48 25.2255 20.2 26.4455 20.2C27.5855 20.2 28.4855 19.62 29.0455 18.42L28.9055 18.34C28.5055 19.22 27.9655 19.66 27.4055 19.66C26.9855 19.66 26.7655 19.38 26.7655 18.94C26.7655 18.78 26.8055 18.6 26.8455 18.4L30.1855 5.02ZM30.3077 15.92C30.1877 16.4 30.1277 16.86 30.1277 17.3C30.1277 19.02 31.1677 20.2 33.2077 20.2C36.9077 20.2 39.6677 16.14 39.6677 12.62C39.6677 11 38.9077 10 37.5477 10C36.5877 10 35.8677 10.6 35.5477 11.44L35.7077 11.54C36.0677 10.72 36.6677 10.2 37.5477 10.2C38.7877 10.2 39.4677 11.14 39.4677 12.64C39.4677 16.06 36.7277 19.76 33.9277 19.76C32.8077 19.76 32.3277 19.02 32.3277 17.86C32.3277 17.36 32.4277 16.76 32.5877 16.1L34.0477 10.2H31.7277L30.3077 15.92ZM44.1861 20.2C46.2061 20.2 47.8861 19.22 48.6861 17.42L48.5061 17.36C47.7261 19.06 46.2861 19.84 44.8261 19.84C43.4461 19.84 42.4661 18.84 42.4661 16.88C42.4661 16.38 42.5061 15.88 42.5861 15.38C46.1461 15.3 49.4261 14.46 49.4261 12.18C49.4261 10.96 48.3661 10 46.4461 10C43.0661 10 40.2061 13.02 40.2061 16.38C40.2061 18.78 42.0661 20.2 44.1861 20.2ZM46.4061 10.2C47.3661 10.2 47.7461 10.72 47.7461 11.6C47.7461 14 45.7461 15.1 42.6261 15.22C43.0861 12.64 44.5661 10.2 46.4061 10.2ZM54.6289 10.2C56.5289 10.2 57.6089 11.02 57.6089 12.18C57.6089 12.78 57.3289 13.2 56.8689 13.44L56.9289 13.6C57.4289 13.36 57.8089 12.86 57.8089 12.18C57.8089 10.9 56.6089 10 54.6289 10C52.2889 10 50.7089 11.42 50.7089 13.18C50.7089 14.66 51.9889 15.24 53.4689 15.9C54.6889 16.44 55.5489 16.92 55.5489 17.92C55.5489 19.04 54.5889 19.96 52.8689 19.96C50.9689 19.96 49.4489 18.96 49.4489 17.64C49.4489 16.96 49.8289 16.44 50.4489 16.16L50.3689 16.02C49.6889 16.28 49.2489 16.9 49.2489 17.64C49.2489 19.06 50.8489 20.2 53.0689 20.2C55.5489 20.2 57.3089 18.62 57.3089 16.78C57.3089 15.24 56.0089 14.6 54.3889 13.92C53.2689 13.42 52.3689 12.98 52.3689 12.04C52.3689 10.96 53.2089 10.2 54.6289 10.2ZM59.0105 10.4H60.5305L58.8705 17.12C58.8105 17.42 58.7705 17.68 58.7705 17.94C58.7705 19.36 59.8105 20.2 61.2905 20.2C63.3905 20.2 64.6105 18.74 65.1505 16.76L64.9705 16.72C64.4505 18.56 63.4105 19.74 62.0705 19.74C61.3305 19.74 60.9105 19.34 60.9105 18.58C60.9105 18.38 60.9505 18.12 61.0105 17.84L62.8505 10.4H65.9105L66.0505 10.2H62.9105L63.7105 6.94L61.2305 7.86L60.5905 10.2H59.0705L59.0105 10.4ZM69.6267 20.2C71.6467 20.2 73.3267 19.22 74.1267 17.42L73.9467 17.36C73.1667 19.06 71.7267 19.84 70.2667 19.84C68.8867 19.84 67.9067 18.84 67.9067 16.88C67.9067 16.38 67.9467 15.88 68.0267 15.38C71.5867 15.3 74.8667 14.46 74.8667 12.18C74.8667 10.96 73.8067 10 71.8867 10C68.5067 10 65.6467 13.02 65.6467 16.38C65.6467 18.78 67.5067 20.2 69.6267 20.2ZM71.8467 10.2C72.8067 10.2 73.1867 10.72 73.1867 11.6C73.1867 14 71.1867 15.1 68.0667 15.22C68.5267 12.64 70.0067 10.2 71.8467 10.2ZM78.8523 13.16L79.5123 10.2H77.2523L74.8123 20H77.1323L78.5323 14.4C79.1723 12.46 80.6723 10.2 82.4523 10.2C83.4723 10.2 83.9923 10.84 83.9923 11.74C83.9923 12.64 83.4923 13.38 82.7323 13.86L82.8323 14.02C83.6123 13.56 84.1923 12.68 84.1923 11.74C84.1923 10.72 83.5723 10 82.4523 10C80.9123 10 79.6123 11.58 78.8523 13.16Z" fill="white"/>
<path d="M3 28H83" stroke="white" stroke-width="2" stroke-linecap="round" stroke-linejoin="round"/>
<path d="M9.97914 43.28H3.93914L8.59914 36.66L9.97914 43.28ZM10.9591 48H13.5191L10.4191 33.8H10.3391L0.359141 48H0.619141L3.77914 43.5H10.0191L10.9591 48ZM22.2329 44.24C21.7329 46.04 20.3729 47.42 18.9929 47.42C17.7729 47.42 17.3529 46.46 17.3529 45.1C17.3529 42.14 18.7729 38.66 21.0529 38.66C22.2129 38.66 22.9129 39.52 22.9129 40.88C22.9129 41.3 22.8529 41.76 22.7329 42.2L22.2329 44.24ZM21.3529 47.64C20.6129 50.46 19.4729 52.22 16.8329 52.22C15.1929 52.22 13.8329 51.34 13.8329 49.96C13.8329 49.08 14.3129 48.46 15.0529 48.2L14.9929 48.02C14.1729 48.32 13.6329 48.98 13.6329 49.96C13.6329 51.44 15.0529 52.5 17.2729 52.5C20.3729 52.5 22.7329 51.08 23.8729 46.92L26.0529 38.2H23.8729L23.0729 40.76C23.0529 39.22 22.0329 38 20.3729 38C17.2529 38 15.0129 41.16 15.0129 44.56C15.0129 46.66 16.2329 48.02 18.1929 48.02C19.8729 48.02 21.2129 46.84 21.9529 45.4L21.3529 47.64ZM30.673 38.2H28.333L26.693 44.8C26.613 45.14 26.573 45.48 26.573 45.78C26.573 47.26 27.513 48.2 29.053 48.2C30.593 48.2 31.993 47.22 32.853 45.58C32.733 46.06 32.713 46.38 32.713 46.5C32.713 47.48 33.393 48.2 34.593 48.2C35.713 48.2 36.613 47.62 37.173 46.42L37.033 46.34C36.633 47.22 36.093 47.66 35.553 47.66C35.113 47.66 34.913 47.4 34.913 46.94C34.913 46.78 34.933 46.6 34.973 46.4L37.013 38.2H34.693L33.173 44.3C32.633 46.3 31.173 47.66 29.893 47.66C29.073 47.66 28.733 47.18 28.733 46.42C28.733 46.14 28.773 45.8 28.873 45.46L30.673 38.2ZM40.5657 45.46C40.5857 46.98 41.6057 48.2 43.2457 48.2C46.3257 48.2 48.6657 44.92 48.6657 41.52C48.6657 39.44 47.4857 38 45.5257 38C43.8257 38 42.4657 39.2 41.7457 40.62L43.6657 33.02H41.3457L37.6057 48H39.7057L40.5657 45.46ZM41.5257 41.52C42.0657 39.98 43.3257 38.62 44.7057 38.62C45.9057 38.62 46.3257 39.56 46.3257 40.92C46.3257 43.96 44.8257 47.56 42.5657 47.56C41.4457 47.56 40.7457 46.68 40.7257 45.34C40.7257 44.92 40.8057 44.46 40.9057 44L41.5257 41.52ZM55.9393 46.5C55.9393 47.48 56.6193 48.2 57.7993 48.2C58.9393 48.2 59.8393 47.62 60.3993 46.42L60.2593 46.34C59.8593 47.22 59.3193 47.66 58.7593 47.66C58.3393 47.66 58.1193 47.38 58.1193 46.94C58.1193 46.78 58.1593 46.6 58.1993 46.4L60.2393 38.2H58.0793L57.2793 40.76C57.2393 39.22 56.3393 38 54.7193 38C51.6393 38 49.3193 41.2 49.3193 44.62C49.3193 46.7 50.5193 48.2 52.4793 48.2C54.0993 48.2 55.3993 47 56.1193 45.58C55.9593 46.1 55.9393 46.38 55.9393 46.5ZM56.3193 44.7C55.7793 46.22 54.5593 47.58 53.2593 47.58C52.0993 47.58 51.6393 46.64 51.6593 45.22C51.6593 42.12 53.1993 38.68 55.3593 38.68C56.4793 38.68 57.1193 39.6 57.1193 40.86C57.1193 41.3 57.0393 41.74 56.9393 42.2L56.3193 44.7ZM61.532 38.4H63.052L61.392 45.12C61.332 45.42 61.292 45.68 61.292 45.94C61.292 47.36 62.332 48.2 63.812 48.2C65.912 48.2 67.132 46.74 67.672 44.76L67.492 44.72C66.972 46.56 65.932 47.74 64.592 47.74C63.852 47.74 63.432 47.34 63.432 46.58C63.432 46.38 63.472 46.12 63.532 45.84L65.372 38.4H68.432L68.572 38.2H65.432L66.232 34.94L63.752 35.86L63.112 38.2H61.592L61.532 38.4ZM74.7682 46.5C74.7682 47.48 75.4482 48.2 76.6282 48.2C77.7682 48.2 78.6682 47.62 79.2282 46.42L79.0882 46.34C78.6882 47.22 78.1482 47.66 77.5882 47.66C77.1682 47.66 76.9482 47.38 76.9482 46.94C76.9482 46.78 76.9882 46.6 77.0282 46.4L79.0682 38.2H76.9082L76.1082 40.76C76.0682 39.22 75.1682 38 73.5482 38C70.4682 38 68.1482 41.2 68.1482 44.62C68.1482 46.7 69.3482 48.2 71.3082 48.2C72.9282 48.2 74.2282 47 74.9482 45.58C74.7882 46.1 74.7682 46.38 74.7682 46.5ZM75.1482 44.7C74.6082 46.22 73.3882 47.58 72.0882 47.58C70.9282 47.58 70.4682 46.64 70.4882 45.22C70.4882 42.12 72.0282 38.68 74.1882 38.68C75.3082 38.68 75.9482 39.6 75.9482 40.86C75.9482 41.3 75.8682 41.74 75.7682 42.2L75.1482 44.7Z" fill="white"/>
</svg>
